{
	"asset":{
		"generator":"Khronos glTF Blender I/O v4.2.57",
		"version":"2.0"
	},
	"scene":0,
	"scenes":[
		{
			"name":"Scene",
			"nodes":[
				0,
				1,
				2,
				3,
				4,
				5,
				6,
				7,
				8,
				9,
				10,
				11,
				12,
				13,
				14,
				15,
				16
			]
		}
	],
	"nodes":[
		{
			"mesh":0,
			"name":"grass_medium_01.001"
		},
		{
			"mesh":1,
			"name":"grass_medium_01.002"
		},
		{
			"mesh":2,
			"name":"grass_medium_01.003"
		},
		{
			"mesh":3,
			"name":"grass_medium_01.004"
		},
		{
			"mesh":4,
			"name":"grass_medium_01.005"
		},
		{
			"mesh":5,
			"name":"grass_medium_01.006"
		},
		{
			"mesh":6,
			"name":"grass_medium_01.007"
		},
		{
			"mesh":7,
			"name":"grass_medium_01.008"
		},
		{
			"mesh":8,
			"name":"grass_medium_01.009"
		},
		{
			"mesh":9,
			"name":"grass_medium_01.010"
		},
		{
			"mesh":10,
			"name":"grass_medium_01.011"
		},
		{
			"mesh":11,
			"name":"grass_medium_01.012"
		},
		{
			"mesh":12,
			"name":"grass_medium_01.013"
		},
		{
			"mesh":13,
			"name":"grass_medium_01.014"
		},
		{
			"mesh":14,
			"name":"grass_medium_01.015"
		},
		{
			"mesh":15,
			"name":"grass_medium_01.016"
		},
		{
			"mesh":16,
			"name":"grass_medium_01.017"
		}
	],
	"materials":[
		{
			"alphaMode":"MASK",
			"doubleSided":true,
			"name":"grass_medium_01",
			"normalTexture":{
				"index":0
			},
			"pbrMetallicRoughness":{
				"baseColorTexture":{
					"index":1
				},
				"metallicFactor":0,
				"metallicRoughnessTexture":{
					"index":2
				}
			}
		}
	],
	"meshes":[
		{
			"name":"Plane.001",
			"primitives":[
				{
					"attributes":{
						"POSITION":0,
						"NORMAL":1,
						"TEXCOORD_0":2
					},
					"indices":3,
					"material":0
				}
			]
		},
		{
			"name":"Plane.002",
			"primitives":[
				{
					"attributes":{
						"POSITION":4,
						"NORMAL":5,
						"TEXCOORD_0":6
					},
					"indices":7,
					"material":0
				}
			]
		},
		{
			"name":"Plane.003",
			"primitives":[
				{
					"attributes":{
						"POSITION":8,
						"NORMAL":9,
						"TEXCOORD_0":10
					},
					"indices":11,
					"material":0
				}
			]
		},
		{
			"name":"Plane.004",
			"primitives":[
				{
					"attributes":{
						"POSITION":12,
						"NORMAL":13,
						"TEXCOORD_0":14
					},
					"indices":15,
					"material":0
				}
			]
		},
		{
			"name":"Plane.005",
			"primitives":[
				{
					"attributes":{
						"POSITION":16,
						"NORMAL":17,
						"TEXCOORD_0":18
					},
					"indices":19,
					"material":0
				}
			]
		},
		{
			"name":"Plane.006",
			"primitives":[
				{
					"attributes":{
						"POSITION":20,
						"NORMAL":21,
						"TEXCOORD_0":22
					},
					"indices":23,
					"material":0
				}
			]
		},
		{
			"name":"Plane.007",
			"primitives":[
				{
					"attributes":{
						"POSITION":24,
						"NORMAL":25,
						"TEXCOORD_0":26
					},
					"indices":27,
					"material":0
				}
			]
		},
		{
			"name":"Plane.008",
			"primitives":[
				{
					"attributes":{
						"POSITION":28,
						"NORMAL":29,
						"TEXCOORD_0":30
					},
					"indices":31,
					"material":0
				}
			]
		},
		{
			"name":"Plane.009",
			"primitives":[
				{
					"attributes":{
						"POSITION":32,
						"NORMAL":33,
						"TEXCOORD_0":34
					},
					"indices":35,
					"material":0
				}
			]
		},
		{
			"name":"Plane.010",
			"primitives":[
				{
					"attributes":{
						"POSITION":36,
						"NORMAL":37,
						"TEXCOORD_0":38
					},
					"indices":39,
					"material":0
				}
			]
		},
		{
			"name":"Plane.011",
			"primitives":[
				{
					"attributes":{
						"POSITION":40,
						"NORMAL":41,
						"TEXCOORD_0":42
					},
					"indices":43,
					"material":0
				}
			]
		},
		{
			"name":"Plane.012",
			"primitives":[
				{
					"attributes":{
						"POSITION":44,
						"NORMAL":45,
						"TEXCOORD_0":46
					},
					"indices":47,
					"material":0
				}
			]
		},
		{
			"name":"Plane.013",
			"primitives":[
				{
					"attributes":{
						"POSITION":48,
						"NORMAL":49,
						"TEXCOORD_0":50
					},
					"indices":51,
					"material":0
				}
			]
		},
		{
			"name":"Plane.014",
			"primitives":[
				{
					"attributes":{
						"POSITION":52,
						"NORMAL":53,
						"TEXCOORD_0":54
					},
					"indices":55,
					"material":0
				}
			]
		},
		{
			"name":"Plane.015",
			"primitives":[
				{
					"attributes":{
						"POSITION":56,
						"NORMAL":57,
						"TEXCOORD_0":58
					},
					"indices":59,
					"material":0
				}
			]
		},
		{
			"name":"Plane.016",
			"primitives":[
				{
					"attributes":{
						"POSITION":60,
						"NORMAL":61,
						"TEXCOORD_0":62
					},
					"indices":63,
					"material":0
				}
			]
		},
		{
			"name":"Plane.017",
			"primitives":[
				{
					"attributes":{
						"POSITION":64,
						"NORMAL":65,
						"TEXCOORD_0":66
					},
					"indices":67,
					"material":0
				}
			]
		}
	],
	"textures":[
		{
			"sampler":0,
			"source":0
		},
		{
			"sampler":0,
			"source":1
		},
		{
			"sampler":0,
			"source":2
		}
	],
	"images":[
		{
			"mimeType":"image/jpeg",
			"name":"grass_medium_01_nor_gl_4k",
			"uri":"grass_medium_01_nor_gl_4k.jpg"
		},
		{
			"mimeType":"image/png",
			"name":"grass_medium_01_diff_4k",
			"uri":"grass_medium_01_diff_4k.png"
		},
		{
			"mimeType":"image/jpeg",
			"name":"grass_medium_01_arm_4k",
			"uri":"grass_medium_01_arm_4k.jpg"
		}
	],
	"accessors":[
		{
			"bufferView":0,
			"componentType":5126,
			"count":7063,
			"max":[
				-0.4357854127883911,
				0.13918423652648926,
				-0.23114968836307526
			],
			"min":[
				-0.7527943849563599,
				-0.007504553068429232,
				-0.5577085018157959
			],
			"type":"VEC3"
		},
		{
			"bufferView":1,
			"componentType":5126,
			"count":7063,
			"type":"VEC3"
		},
		{
			"bufferView":2,
			"componentType":5126,
			"count":7063,
			"type":"VEC2"
		},
		{
			"bufferView":3,
			"componentType":5123,
			"count":19266,
			"type":"SCALAR"
		},
		{
			"bufferView":4,
			"componentType":5126,
			"count":4832,
			"max":[
				-0.06191207468509674,
				0.14364951848983765,
				-0.25809645652770996
			],
			"min":[
				-0.3460094928741455,
				-0.025613101199269295,
				-0.533836305141449
			],
			"type":"VEC3"
		},
		{
			"bufferView":5,
			"componentType":5126,
			"count":4832,
			"type":"VEC3"
		},
		{
			"bufferView":6,
			"componentType":5126,
			"count":4832,
			"type":"VEC2"
		},
		{
			"bufferView":7,
			"componentType":5123,
			"count":13878,
			"type":"SCALAR"
		},
		{
			"bufferView":8,
			"componentType":5126,
			"count":6518,
			"max":[
				0.3335934579372406,
				0.12087008357048035,
				-0.28029829263687134
			],
			"min":[
				0.054802387952804565,
				-0.021477332338690758,
				-0.5353681445121765
			],
			"type":"VEC3"
		},
		{
			"bufferView":9,
			"componentType":5126,
			"count":6518,
			"type":"VEC3"
		},
		{
			"bufferView":10,
			"componentType":5126,
			"count":6518,
			"type":"VEC2"
		},
		{
			"bufferView":11,
			"componentType":5123,
			"count":17835,
			"type":"SCALAR"
		},
		{
			"bufferView":12,
			"componentType":5126,
			"count":2593,
			"max":[
				0.7037668824195862,
				0.19480454921722412,
				-0.29098033905029297
			],
			"min":[
				0.48815155029296875,
				-0.02293974906206131,
				-0.5123582482337952
			],
			"type":"VEC3"
		},
		{
			"bufferView":13,
			"componentType":5126,
			"count":2593,
			"type":"VEC3"
		},
		{
			"bufferView":14,
			"componentType":5126,
			"count":2593,
			"type":"VEC2"
		},
		{
			"bufferView":15,
			"componentType":5123,
			"count":6861,
			"type":"SCALAR"
		},
		{
			"bufferView":16,
			"componentType":5126,
			"count":700,
			"max":[
				0.6738010048866272,
				0.09223899245262146,
				0.09204978495836258
			],
			"min":[
				0.5078443288803101,
				-0.007656285539269447,
				-0.09784233570098877
			],
			"type":"VEC3"
		},
		{
			"bufferView":17,
			"componentType":5126,
			"count":700,
			"type":"VEC3"
		},
		{
			"bufferView":18,
			"componentType":5126,
			"count":700,
			"type":"VEC2"
		},
		{
			"bufferView":19,
			"componentType":5123,
			"count":1959,
			"type":"SCALAR"
		},
		{
			"bufferView":20,
			"componentType":5126,
			"count":892,
			"max":[
				0.3049122095108032,
				0.13794554769992828,
				0.07973111420869827
			],
			"min":[
				0.12007211148738861,
				-0.0024811276234686375,
				-0.08258192986249924
			],
			"type":"VEC3"
		},
		{
			"bufferView":21,
			"componentType":5126,
			"count":892,
			"type":"VEC3"
		},
		{
			"bufferView":22,
			"componentType":5126,
			"count":892,
			"type":"VEC2"
		},
		{
			"bufferView":23,
			"componentType":5123,
			"count":2499,
			"type":"SCALAR"
		},
		{
			"bufferView":24,
			"componentType":5126,
			"count":1596,
			"max":[
				-0.08782561123371124,
				0.12322665750980377,
				0.09483355283737183
			],
			"min":[
				-0.28015613555908203,
				-0.02140900306403637,
				-0.10802191495895386
			],
			"type":"VEC3"
		},
		{
			"bufferView":25,
			"componentType":5126,
			"count":1596,
			"type":"VEC3"
		},
		{
			"bufferView":26,
			"componentType":5126,
			"count":1596,
			"type":"VEC2"
		},
		{
			"bufferView":27,
			"componentType":5123,
			"count":4398,
			"type":"SCALAR"
		},
		{
			"bufferView":28,
			"componentType":5126,
			"count":1388,
			"max":[
				-0.48866593837738037,
				0.1743771880865097,
				0.11334384977817535
			],
			"min":[
				-0.6764547228813171,
				-0.003344380995258689,
				-0.0876847505569458
			],
			"type":"VEC3"
		},
		{
			"bufferView":29,
			"componentType":5126,
			"count":1388,
			"type":"VEC3"
		},
		{
			"bufferView":30,
			"componentType":5126,
			"count":1388,
			"type":"VEC2"
		},
		{
			"bufferView":31,
			"componentType":5123,
			"count":3771,
			"type":"SCALAR"
		},
		{
			"bufferView":32,
			"componentType":5126,
			"count":330,
			"max":[
				-0.5186278223991394,
				0.3169684112071991,
				0.48402851819992065
			],
			"min":[
				-0.6795842051506042,
				-0.005577980075031519,
				0.325497031211853
			],
			"type":"VEC3"
		},
		{
			"bufferView":33,
			"componentType":5126,
			"count":330,
			"type":"VEC3"
		},
		{
			"bufferView":34,
			"componentType":5126,
			"count":330,
			"type":"VEC2"
		},
		{
			"bufferView":35,
			"componentType":5123,
			"count":870,
			"type":"SCALAR"
		},
		{
			"bufferView":36,
			"componentType":5126,
			"count":354,
			"max":[
				-0.13397134840488434,
				0.28376469016075134,
				0.4744914770126343
			],
			"min":[
				-0.2839198112487793,
				-0.0018983071204274893,
				0.3397018313407898
			],
			"type":"VEC3"
		},
		{
			"bufferView":37,
			"componentType":5126,
			"count":354,
			"type":"VEC3"
		},
		{
			"bufferView":38,
			"componentType":5126,
			"count":354,
			"type":"VEC2"
		},
		{
			"bufferView":39,
			"componentType":5123,
			"count":930,
			"type":"SCALAR"
		},
		{
			"bufferView":40,
			"componentType":5126,
			"count":394,
			"max":[
				0.28640231490135193,
				0.23052458465099335,
				0.4775939881801605
			],
			"min":[
				0.1333714723587036,
				-0.00573160033673048,
				0.34943708777427673
			],
			"type":"VEC3"
		},
		{
			"bufferView":41,
			"componentType":5126,
			"count":394,
			"type":"VEC3"
		},
		{
			"bufferView":42,
			"componentType":5126,
			"count":394,
			"type":"VEC2"
		},
		{
			"bufferView":43,
			"componentType":5123,
			"count":1020,
			"type":"SCALAR"
		},
		{
			"bufferView":44,
			"componentType":5126,
			"count":87,
			"max":[
				0.6440471410751343,
				0.10979903489351273,
				0.4227622449398041
			],
			"min":[
				0.5766993761062622,
				-0.0026543086860328913,
				0.3489934802055359
			],
			"type":"VEC3"
		},
		{
			"bufferView":45,
			"componentType":5126,
			"count":87,
			"type":"VEC3"
		},
		{
			"bufferView":46,
			"componentType":5126,
			"count":87,
			"type":"VEC2"
		},
		{
			"bufferView":47,
			"componentType":5123,
			"count":237,
			"type":"SCALAR"
		},
		{
			"bufferView":48,
			"componentType":5126,
			"count":32,
			"max":[
				-0.3849484324455261,
				0.057911694049835205,
				0.6871582865715027
			],
			"min":[
				-0.4085182547569275,
				-0.002296786056831479,
				0.6527595520019531
			],
			"type":"VEC3"
		},
		{
			"bufferView":49,
			"componentType":5126,
			"count":32,
			"type":"VEC3"
		},
		{
			"bufferView":50,
			"componentType":5126,
			"count":32,
			"type":"VEC2"
		},
		{
			"bufferView":51,
			"componentType":5123,
			"count":84,
			"type":"SCALAR"
		},
		{
			"bufferView":52,
			"componentType":5126,
			"count":44,
			"max":[
				-0.1903448849916458,
				0.08086099475622177,
				0.7152366638183594
			],
			"min":[
				-0.2063763588666916,
				-0.0015277046477422118,
				0.68623286485672
			],
			"type":"VEC3"
		},
		{
			"bufferView":53,
			"componentType":5126,
			"count":44,
			"type":"VEC3"
		},
		{
			"bufferView":54,
			"componentType":5126,
			"count":44,
			"type":"VEC2"
		},
		{
			"bufferView":55,
			"componentType":5123,
			"count":120,
			"type":"SCALAR"
		},
		{
			"bufferView":56,
			"componentType":5126,
			"count":36,
			"max":[
				0.03771863877773285,
				0.04515690729022026,
				0.7211388349533081
			],
			"min":[
				-0.0053211599588394165,
				-0.00266977958381176,
				0.6325563788414001
			],
			"type":"VEC3"
		},
		{
			"bufferView":57,
			"componentType":5126,
			"count":36,
			"type":"VEC3"
		},
		{
			"bufferView":58,
			"componentType":5126,
			"count":36,
			"type":"VEC2"
		},
		{
			"bufferView":59,
			"componentType":5123,
			"count":96,
			"type":"SCALAR"
		},
		{
			"bufferView":60,
			"componentType":5126,
			"count":66,
			"max":[
				0.2541668713092804,
				0.0448271669447422,
				0.7387055158615112
			],
			"min":[
				0.16890141367912292,
				-0.0046236226335167885,
				0.6645535826683044
			],
			"type":"VEC3"
		},
		{
			"bufferView":61,
			"componentType":5126,
			"count":66,
			"type":"VEC3"
		},
		{
			"bufferView":62,
			"componentType":5126,
			"count":66,
			"type":"VEC2"
		},
		{
			"bufferView":63,
			"componentType":5123,
			"count":186,
			"type":"SCALAR"
		},
		{
			"bufferView":64,
			"componentType":5126,
			"count":72,
			"max":[
				0.4478442668914795,
				0.044163916260004044,
				0.7102752923965454
			],
			"min":[
				0.3926486372947693,
				-0.0029108894523233175,
				0.6413851380348206
			],
			"type":"VEC3"
		},
		{
			"bufferView":65,
			"componentType":5126,
			"count":72,
			"type":"VEC3"
		},
		{
			"bufferView":66,
			"componentType":5126,
			"count":72,
			"type":"VEC2"
		},
		{
			"bufferView":67,
			"componentType":5123,
			"count":180,
			"type":"SCALAR"
		}
	],
	"bufferViews":[
		{
			"buffer":0,
			"byteLength":84756,
			"byteOffset":0,
			"target":34962
		},
		{
			"buffer":0,
			"byteLength":84756,
			"byteOffset":84756,
			"target":34962
		},
		{
			"buffer":0,
			"byteLength":56504,
			"byteOffset":169512,
			"target":34962
		},
		{
			"buffer":0,
			"byteLength":38532,
			"byteOffset":226016,
			"target":34963
		},
		{
			"buffer":0,
			"byteLength":57984,
			"byteOffset":264548,
			"target":34962
		},
		{
			"buffer":0,
			"byteLength":57984,
			"byteOffset":322532,
			"target":34962
		},
		{
			"buffer":0,
			"byteLength":38656,
			"byteOffset":380516,
			"target":34962
		},
		{
			"buffer":0,
			"byteLength":27756,
			"byteOffset":419172,
			"target":34963
		},
		{
			"buffer":0,
			"byteLength":78216,
			"byteOffset":446928,
			"target":34962
		},
		{
			"buffer":0,
			"byteLength":78216,
			"byteOffset":525144,
			"target":34962
		},
		{
			"buffer":0,
			"byteLength":52144,
			"byteOffset":603360,
			"target":34962
		},
		{
			"buffer":0,
			"byteLength":35670,
			"byteOffset":655504,
			"target":34963
		},
		{
			"buffer":0,
			"byteLength":31116,
			"byteOffset":691176,
			"target":34962
		},
		{
			"buffer":0,
			"byteLength":31116,
			"byteOffset":722292,
			"target":34962
		},
		{
			"buffer":0,
			"byteLength":20744,
			"byteOffset":753408,
			"target":34962
		},
		{
			"buffer":0,
			"byteLength":13722,
			"byteOffset":774152,
			"target":34963
		},
		{
			"buffer":0,
			"byteLength":8400,
			"byteOffset":787876,
			"target":34962
		},
		{
			"buffer":0,
			"byteLength":8400,
			"byteOffset":796276,
			"target":34962
		},
		{
			"buffer":0,
			"byteLength":5600,
			"byteOffset":804676,
			"target":34962
		},
		{
			"buffer":0,
			"byteLength":3918,
			"byteOffset":810276,
			"target":34963
		},
		{
			"buffer":0,
			"byteLength":10704,
			"byteOffset":814196,
			"target":34962
		},
		{
			"buffer":0,
			"byteLength":10704,
			"byteOffset":824900,
			"target":34962
		},
		{
			"buffer":0,
			"byteLength":7136,
			"byteOffset":835604,
			"target":34962
		},
		{
			"buffer":0,
			"byteLength":4998,
			"byteOffset":842740,
			"target":34963
		},
		{
			"buffer":0,
			"byteLength":19152,
			"byteOffset":847740,
			"target":34962
		},
		{
			"buffer":0,
			"byteLength":19152,
			"byteOffset":866892,
			"target":34962
		},
		{
			"buffer":0,
			"byteLength":12768,
			"byteOffset":886044,
			"target":34962
		},
		{
			"buffer":0,
			"byteLength":8796,
			"byteOffset":898812,
			"target":34963
		},
		{
			"buffer":0,
			"byteLength":16656,
			"byteOffset":907608,
			"target":34962
		},
		{
			"buffer":0,
			"byteLength":16656,
			"byteOffset":924264,
			"target":34962
		},
		{
			"buffer":0,
			"byteLength":11104,
			"byteOffset":940920,
			"target":34962
		},
		{
			"buffer":0,
			"byteLength":7542,
			"byteOffset":952024,
			"target":34963
		},
		{
			"buffer":0,
			"byteLength":3960,
			"byteOffset":959568,
			"target":34962
		},
		{
			"buffer":0,
			"byteLength":3960,
			"byteOffset":963528,
			"target":34962
		},
		{
			"buffer":0,
			"byteLength":2640,
			"byteOffset":967488,
			"target":34962
		},
		{
			"buffer":0,
			"byteLength":1740,
			"byteOffset":970128,
			"target":34963
		},
		{
			"buffer":0,
			"byteLength":4248,
			"byteOffset":971868,
			"target":34962
		},
		{
			"buffer":0,
			"byteLength":4248,
			"byteOffset":976116,
			"target":34962
		},
		{
			"buffer":0,
			"byteLength":2832,
			"byteOffset":980364,
			"target":34962
		},
		{
			"buffer":0,
			"byteLength":1860,
			"byteOffset":983196,
			"target":34963
		},
		{
			"buffer":0,
			"byteLength":4728,
			"byteOffset":985056,
			"target":34962
		},
		{
			"buffer":0,
			"byteLength":4728,
			"byteOffset":989784,
			"target":34962
		},
		{
			"buffer":0,
			"byteLength":3152,
			"byteOffset":994512,
			"target":34962
		},
		{
			"buffer":0,
			"byteLength":2040,
			"byteOffset":997664,
			"target":34963
		},
		{
			"buffer":0,
			"byteLength":1044,
			"byteOffset":999704,
			"target":34962
		},
		{
			"buffer":0,
			"byteLength":1044,
			"byteOffset":1000748,
			"target":34962
		},
		{
			"buffer":0,
			"byteLength":696,
			"byteOffset":1001792,
			"target":34962
		},
		{
			"buffer":0,
			"byteLength":474,
			"byteOffset":1002488,
			"target":34963
		},
		{
			"buffer":0,
			"byteLength":384,
			"byteOffset":1002964,
			"target":34962
		},
		{
			"buffer":0,
			"byteLength":384,
			"byteOffset":1003348,
			"target":34962
		},
		{
			"buffer":0,
			"byteLength":256,
			"byteOffset":1003732,
			"target":34962
		},
		{
			"buffer":0,
			"byteLength":168,
			"byteOffset":1003988,
			"target":34963
		},
		{
			"buffer":0,
			"byteLength":528,
			"byteOffset":1004156,
			"target":34962
		},
		{
			"buffer":0,
			"byteLength":528,
			"byteOffset":1004684,
			"target":34962
		},
		{
			"buffer":0,
			"byteLength":352,
			"byteOffset":1005212,
			"target":34962
		},
		{
			"buffer":0,
			"byteLength":240,
			"byteOffset":1005564,
			"target":34963
		},
		{
			"buffer":0,
			"byteLength":432,
			"byteOffset":1005804,
			"target":34962
		},
		{
			"buffer":0,
			"byteLength":432,
			"byteOffset":1006236,
			"target":34962
		},
		{
			"buffer":0,
			"byteLength":288,
			"byteOffset":1006668,
			"target":34962
		},
		{
			"buffer":0,
			"byteLength":192,
			"byteOffset":1006956,
			"target":34963
		},
		{
			"buffer":0,
			"byteLength":792,
			"byteOffset":1007148,
			"target":34962
		},
		{
			"buffer":0,
			"byteLength":792,
			"byteOffset":1007940,
			"target":34962
		},
		{
			"buffer":0,
			"byteLength":528,
			"byteOffset":1008732,
			"target":34962
		},
		{
			"buffer":0,
			"byteLength":372,
			"byteOffset":1009260,
			"target":34963
		},
		{
			"buffer":0,
			"byteLength":864,
			"byteOffset":1009632,
			"target":34962
		},
		{
			"buffer":0,
			"byteLength":864,
			"byteOffset":1010496,
			"target":34962
		},
		{
			"buffer":0,
			"byteLength":576,
			"byteOffset":1011360,
			"target":34962
		},
		{
			"buffer":0,
			"byteLength":360,
			"byteOffset":1011936,
			"target":34963
		}
	],
	"samplers":[
		{
			"magFilter":9729,
			"minFilter":9987
		}
	],
	"buffers":[
		{
			"byteLength":1012296,
			"uri":"grass_medium_01_4k.bin"
		}
	]
}
